/* XPM */
static char * miro_xpm[] = {
"32 32 371 2",
"  	c None",
". 	c #DD5F34",
"+ 	c #E5774A",
"@ 	c #E98355",
"# 	c #EA8658",
"$ 	c #E98356",
"% 	c #E4764A",
"& 	c #DD5E32",
"* 	c #EC8554",
"= 	c #F7A772",
"- 	c #F8B380",
"; 	c #F8B27F",
"> 	c #F8B27E",
", 	c #F8B17E",
"' 	c #F8B07D",
") 	c #F4AB7B",
"! 	c #E58662",
"~ 	c #D35639",
"{ 	c #D64A30",
"] 	c #EA7D59",
"^ 	c #F19C77",
"/ 	c #F19D79",
"( 	c #F49373",
"_ 	c #F68F71",
": 	c #F68E70",
"< 	c #F58D6F",
"[ 	c #F0A275",
"} 	c #F0A174",
"| 	c #ED9971",
"1 	c #E3846B",
"2 	c #E28269",
"3 	c #D75A46",
"4 	c #EC7D4A",
"5 	c #F0946E",
"6 	c #EA8571",
"7 	c #EA8470",
"8 	c #EA846F",
"9 	c #F16E64",
"0 	c #F36660",
"a 	c #F3655F",
"b 	c #F3645E",
"c 	c #E9926C",
"d 	c #E8916B",
"e 	c #E8906A",
"f 	c #E58566",
"g 	c #D9645A",
"h 	c #D86359",
"i 	c #D86258",
"j 	c #D74540",
"k 	c #D9562C",
"l 	c #F3925A",
"m 	c #F6A16B",
"n 	c #EF8E69",
"o 	c #E87B68",
"p 	c #E87A67",
"q 	c #E87967",
"r 	c #F0625B",
"s 	c #F25A56",
"t 	c #F25956",
"u 	c #F25855",
"v 	c #E78963",
"w 	c #E78962",
"x 	c #E68862",
"y 	c #E27C5D",
"z 	c #D65850",
"A 	c #D55750",
"B 	c #D5564F",
"C 	c #DB534D",
"D 	c #DA3434",
"E 	c #D95833",
"F 	c #EA875C",
"G 	c #EA8C62",
"H 	c #EA8B61",
"I 	c #E7735A",
"J 	c #E35A52",
"K 	c #E35951",
"L 	c #E35851",
"M 	c #F07A58",
"N 	c #F4845A",
"O 	c #F48459",
"P 	c #F48358",
"Q 	c #D6473E",
"R 	c #D6463D",
"S 	c #D6453D",
"T 	c #D7443E",
"U 	c #DC4344",
"V 	c #DC4243",
"W 	c #DC4143",
"X 	c #E04F49",
"Y 	c #E35A4E",
"Z 	c #BD2721",
"` 	c #E56938",
" .	c #ED8858",
"..	c #E58059",
"+.	c #E47F59",
"@.	c #E47E58",
"#.	c #E2634E",
"$.	c #E04744",
"%.	c #E04643",
"&.	c #E04542",
"*.	c #EF7D51",
"=.	c #F48F56",
"-.	c #F48E55",
";.	c #F48E54",
">.	c #CF262A",
",.	c #CF252A",
"'.	c #CE2429",
").	c #D2272D",
"!.	c #DD333A",
"~.	c #DD3239",
"{.	c #DD3138",
"].	c #E04642",
"^.	c #E35A4C",
"/.	c #BD2F27",
"(.	c #DF6034",
"_.	c #EF8752",
":.	c #E97651",
"<.	c #E26550",
"[.	c #E2644F",
"}.	c #DA4D44",
"|.	c #D2373A",
"1.	c #D23639",
"2.	c #D23538",
"3.	c #E76847",
"4.	c #EF784C",
"5.	c #EF784B",
"6.	c #EE774B",
"7.	c #C41C25",
"8.	c #C41B24",
"9.	c #C31923",
"0.	c #C81B24",
"a.	c #D5222B",
"b.	c #D5212A",
"c.	c #D52029",
"d.	c #D43133",
"e.	c #D3433E",
"f.	c #B42723",
"g.	c #D14C2E",
"h.	c #E16F49",
"i.	c #E17049",
"j.	c #DA7973",
"k.	c #C6E1F5",
"l.	c #C3DCF2",
"m.	c #B8BBD2",
"n.	c #AF6578",
"o.	c #AF1625",
"p.	c #C20C15",
"q.	c #B61220",
"r.	c #A9192A",
"s.	c #970C17",
"t.	c #D04927",
"u.	c #DF6842",
"v.	c #E06943",
"w.	c #E06942",
"x.	c #E77B70",
"y.	c #FFFFFF",
"z.	c #FCFDFE",
"A.	c #DDEDF9",
"B.	c #B44A5C",
"C.	c #900C15",
"D.	c #E64C37",
"E.	c #D53A38",
"F.	c #E26D6C",
"G.	c #F5B3B1",
"H.	c #EB6F71",
"I.	c #FBDADA",
"J.	c #DA969E",
"K.	c #D28088",
"L.	c #F9F3F3",
"M.	c #FEFEFF",
"N.	c #FCFEFF",
"O.	c #C498A5",
"P.	c #A61422",
"Q.	c #AD1421",
"R.	c #B41321",
"S.	c #E4272B",
"T.	c #E22632",
"U.	c #CB0C2E",
"V.	c #DD6067",
"W.	c #E9574C",
"X.	c #E70C0D",
"Y.	c #F38687",
"Z.	c #FEFFFF",
"`.	c #FDFEFF",
" +	c #A91A2B",
".+	c #DEBBBD",
"++	c #F6FBFE",
"@+	c #F4FBFE",
"#+	c #CEBBC6",
"$+	c #891C2F",
"%+	c #DA1F22",
"&+	c #E92F33",
"*+	c #E9564B",
"=+	c #F18586",
"-+	c #FAFDFF",
";+	c #F8FCFE",
">+	c #D8B5BA",
",+	c #EEF8FE",
"'+	c #ECF8FE",
")+	c #CFBEC9",
"!+	c #C10B13",
"~+	c #BD1214",
"{+	c #DE292D",
"]+	c #DE2A2E",
"^+	c #DE2F32",
"/+	c #DB3E3D",
"(+	c #E1676B",
"_+	c #FBFDFF",
":+	c #FAFDFE",
"<+	c #BC4658",
"[+	c #991831",
"}+	c #C68998",
"|+	c #F2FAFE",
"1+	c #F0F9FE",
"2+	c #C2292D",
"3+	c #D2B3B9",
"4+	c #E6F5FD",
"5+	c #E4F4FD",
"6+	c #D3BAC3",
"7+	c #AB1016",
"8+	c #A1141F",
"9+	c #981320",
"0+	c #D01C1F",
"a+	c #DB292D",
"b+	c #DC3232",
"c+	c #E04E42",
"d+	c #E0696C",
"e+	c #F5FBFE",
"f+	c #F3FAFE",
"g+	c #AC405C",
"h+	c #7F1C3D",
"i+	c #B58A9D",
"j+	c #EAF6FD",
"k+	c #E8F6FD",
"l+	c #CB2E2E",
"m+	c #CDB1B9",
"n+	c #DEF2FC",
"o+	c #DCF1FC",
"p+	c #D1B8C0",
"q+	c #B60C0D",
"r+	c #A0141E",
"s+	c #821320",
"t+	c #AF0104",
"u+	c #CF2225",
"v+	c #D72A2D",
"w+	c #D43031",
"x+	c #CA423D",
"y+	c #D16369",
"z+	c #EDF8FE",
"A+	c #EBF7FD",
"B+	c #E9F6FD",
"C+	c #B1425A",
"D+	c #911E39",
"E+	c #BA899B",
"F+	c #E2F4FD",
"G+	c #E0F3FD",
"H+	c #B82A32",
"I+	c #C8AEB9",
"J+	c #D6EFFC",
"K+	c #D4EEFC",
"L+	c #C8B6C3",
"M+	c #A81019",
"N+	c #A01421",
"O+	c #C0060F",
"P+	c #C92628",
"Q+	c #BA2A2E",
"R+	c #A95161",
"S+	c #E5F5FD",
"T+	c #E3F4FD",
"U+	c #E1F3FD",
"V+	c #C34853",
"W+	c #C6262E",
"X+	c #D08B95",
"Y+	c #DAF0FC",
"Z+	c #D8F0FC",
"`+	c #C3AABA",
" @	c #CEECFB",
".@	c #CDEBFB",
"+@	c #B8B7CC",
"@@	c #9C1227",
"#@	c #A30005",
"$@	c #C0050E",
"%@	c #C92528",
"&@	c #A75061",
"*@	c #DDF2FC",
"=@	c #DBF1FC",
"-@	c #D9F0FC",
";@	c #C14753",
">@	c #CC8A95",
",@	c #D2EDFB",
"'@	c #D0ECFB",
")@	c #C0A9BA",
"!@	c #CBEBFB",
"~@	c #7F1025",
"{@	c #A10504",
"]@	c #AE1E21",
"^@	c #AA252E",
"/@	c #A6222E",
"(@	c #9A1A2C",
"_@	c #9D2739",
":@	c #A65061",
"<@	c #A55061",
"[@	c #A44F61",
"}@	c #A0273B",
"|@	c #A22136",
"1@	c #A43A4F",
"2@	c #A45269",
"3@	c #A64F64",
"4@	c #A74E63",
"5@	c #941A34",
"6@	c #9F3F50",
"7@	c #A24F61",
"8@	c #97425C",
"9@	c #78194C",
"0@	c #7A1748",
"a@	c #7B0913",
"b@	c #861428",
"c@	c #921B2E",
"d@	c #AC1729",
"e@	c #841C36",
"f@	c #9E1A2F",
"g@	c #831A3A",
"h@	c #71165C",
"i@	c #720B3C",
"j@	c #700710",
"k@	c #871225",
"l@	c #911A2C",
"m@	c #731050",
"n@	c #94071B",
"o@	c #7D134D",
"p@	c #80164F",
"q@	c #811944",
"r@	c #821C3A",
"s@	c #901B34",
"t@	c #8F1B36",
"u@	c #8A1B38",
"v@	c #771851",
"w@	c #78184E",
"x@	c #7A1741",
"y@	c #68061E",
"z@	c #6B0734",
"A@	c #6E0E54",
"B@	c #70155B",
"C@	c #721350",
"D@	c #77091A",
"E@	c #70083C",
"F@	c #7D113D",
"G@	c #7E1B3C",
"H@	c #8D1A3A",
"I@	c #9B1836",
"J@	c #831A41",
"K@	c #7C1A45",
"L@	c #741854",
"M@	c #741653",
"N@	c #720F4B",
"O@	c #660527",
"P@	c #750B23",
"Q@	c #7E1231",
"R@	c #7C1839",
"S@	c #77174B",
"T@	c #6F135A",
"U@	c #7D1435",
"V@	c #770C24",
"W@	c #5E0613",
"X@	c #69082C",
"Y@	c #6C093F",
"Z@	c #710B47",
"`@	c #730C49",
" #	c #700B45",
".#	c #6A083C",
"+#	c #5F062B",
"                                                                ",
"                                                                ",
"                                      . + @ # $ %               ",
"                                & * = - - ; > , ' ) ! ~         ",
"                            { ] ^ / ( _ : < [ [ } | 1 2 3       ",
"                          4 5 6 7 8 9 0 a b c d e f g h i j     ",
"                      k l m n o p q r s t u v w x y z A B C D   ",
"                    E F G H I J K L M N O P Q R S T U V W X Y Z ",
"                  `  ...+.@.#.$.%.&.*.=.-.;.>.,.'.).!.~.{.].^./.",
"                (._.:.<.[.#.}.|.1.2.3.4.5.6.7.8.9.0.a.b.c.d.e.f.",
"              g.h.i.j.k.k.k.k.k.k.k.k.k.k.k.l.m.n.o.p.p.p.q.r.s.",
"            t.u.v.w.x.y.y.y.y.y.y.y.y.y.y.y.y.z.A.B.p.p.p.q.r.C.",
"            D.E.E.E.F.y.y.y.G.H.I.y.y.y.J.K.L.M.N.O.P.P.P.Q.R.  ",
"          S.T.U.U.U.V.y.y.y.W.X.Y.y.Z.`. +r..+++@+#+$+$+$+P.p.  ",
"        %+&+T.U.U.U.V.y.y.y.*+X.=+-+;+++r.r.>+,+'+)+$+$+$+P.!+  ",
"      ~+{+]+^+/+/+/+(+`._+:+<+[+}+|+1+,+2+2+3+4+5+6+7+7+7+8+9+  ",
"      0+a+a+b+c+c+c+d+e+f+|+g+h+i+j+k+4+l+l+m+n+o+p+q+q+q+r+s+  ",
"    t+u+v+v+w+x+x+x+y+z+A+B+C+D+E+F+G+n+H+H+I+J+K+L+M+M+M+N+    ",
"    O+P+l+l+Q+$+$+$+R+S+T+U+V+W+X+Y+Z+J+h+h+`+ @.@+@h+h+h+@@    ",
"  #@$@%@l+l+Q+$+$+$+&@*@=@-@;@W+>@,@'@ @h+h+)@!@!@+@h+h+h+~@    ",
"    {@]@^@^@/@(@(@(@_@:@<@[@}@|@1@2@3@4@5@5@6@7@7@8@9@9@0@      ",
"      a@b@$+c@d@d@d@(@$+$+$+e@h+h+h+f@r.r.r.$+$+$+g@h@h@i@      ",
"        j@k@l@d@d@d@(@$+$+$+e@h+h+h+f@r.r.r.$+$+$+g@h@m@        ",
"            n@o@p@p@q@r@r@r@s@f@f@f@t@u@u@u@v@v@v@w@x@y@        ",
"              z@A@B@9@h+h+h+5@r.r.r.u@h+h+h+h@h@h@C@D@          ",
"                  E@F@G@h+h+H@I@I@I@J@K@K@K@L@M@N@O@            ",
"                      P@Q@R@S@h@h@h@h@h@h@T@U@V@                ",
"                          W@X@Y@Z@`@`@ #.#+#                    ",
"                                                                ",
"                                                                ",
"                                                                ",
"                                                                "};
